<svg xmlns="http://www.w3.org/2000/svg" viewBox="0 0 68 62" width="68" height="62">
	<style>
		tspan { white-space:pre }
		.shp0 { fill: #95e1d3 } 
	</style>
	<g id="service">
		<g id="3">
			<path id="COMPUTER / OK" class="shp0" d="M62 50L47 50L43 50L43 55L47 59L47 60L21 60L21 59L25 55L25 50L21 50L6 50C4.34 50 3 48.66 3 47L3 7C3 5.34 4.34 4 6 4L62 4C63.66 4 65 5.34 65 7L65 47C65 48.66 63.66 50 62 50ZM61 8L7 8L7 42L61 42L61 8ZM28 22C28.83 22 29.58 22.34 30.12 22.88L30.12 22.88L32 24.76L37.88 18.88L37.88 18.88C38.42 18.33 39.17 18 40 18C41.66 18 43 19.34 43 21C43 21.83 42.66 22.58 42.12 23.12L42.12 23.12L34.12 31.12L34.12 31.12C33.58 31.66 32.83 32 32 32C31.17 32 30.42 31.66 29.88 31.12L29.88 31.12L25.88 27.12L25.88 27.12C25.34 26.58 25 25.83 25 25C25 23.34 26.34 22 28 22Z" />
		</g>
	</g>
</svg>