<svg xmlns="http://www.w3.org/2000/svg" viewBox="0 0 70 66" width="70" height="66">
	<style>
		tspan { white-space:pre }
		.shp0 { fill: #95e1d3 } 
	</style>
	<g id="service">
		<g id="5">
			<path id="HOME" class="shp0" d="M68 35C68 36.66 66.66 38 65 38C64.21 38 63.5 37.69 62.96 37.19L62.95 37.2L36.08 10.32L36.08 10.32L36 10.24L36 10.24L9.11 37.14L9.11 37.14C8.56 37.67 7.82 38 7 38C5.34 38 4 36.66 4 35C4 34.15 4.35 33.38 4.92 32.84L33.84 3.92C34.38 3.35 35.15 3 36 3L36 3L36 3C36 3 36 3 36 3C36.05 3 36.11 3 36.16 3C36.17 3 36.18 3.01 36.18 3.01C36.23 3.01 36.27 3.01 36.32 3.02C36.32 3.02 36.32 3.02 36.33 3.02C37.06 3.1 37.72 3.44 38.19 3.95L38.2 3.95L50 15.76L50 13C50 11.34 51.34 10 53 10C54.66 10 56 11.34 56 13L56 21.76L67.2 32.95L67.19 32.96C67.69 33.5 68 34.21 68 35ZM62 40L62 49L62 53L62 61C62 62.66 60.66 64 59 64L53 64L53 40L41 40L41 64L13 64C11.34 64 10 62.66 10 61L10 53L10 49L10 40L36 14L62 40ZM31 40L19 40L19 52L31 52L31 40Z" />
		</g>
	</g>
</svg>