<svg xmlns="http://www.w3.org/2000/svg" viewBox="0 0 70 68" width="70" height="68">
	<style>
		tspan { white-space:pre }
		.shp0 { fill: #95e1d3 } 
	</style>
	<g id="service">
		<g id="4">
			<path id="BOOK 2" class="shp0" d="M66.13 53.78L37.19 65.75C36.82 65.91 36.42 66 36 66C35.58 66 35.18 65.91 34.81 65.75L5.87 53.78C4.77 53.33 4 52.26 4 51L4 5C4 3.34 5.34 2 7 2C7.41 2 7.79 2.08 8.15 2.23L8.15 2.23L8.15 2.23C8.16 2.23 8.17 2.24 8.18 2.24L36 13.75L63.82 2.24C63.83 2.24 63.84 2.23 63.85 2.23L63.85 2.23L63.85 2.23C64.21 2.08 64.59 2 65 2C66.66 2 68 3.34 68 5L68 51C68 52.26 67.23 53.33 66.13 53.78ZM33 19.01L10 9.49L10 48.99L33 58.51L33 19.01ZM62 9.49L39 19.01L39 58.51L62 48.99L62 9.49ZM43.76 23.27L54.76 18.27L54.76 18.27C55.14 18.1 55.56 18 56 18C57.66 18 59 19.34 59 21C59 22.21 58.28 23.26 57.24 23.73L57.24 23.73L46.24 28.73L46.24 28.73C45.86 28.9 45.44 29 45 29C43.34 29 42 27.66 42 26C42 24.79 42.72 23.74 43.76 23.27ZM43.76 34.27L43.76 34.27L54.76 29.27L54.76 29.27C55.14 29.1 55.56 29 56 29C57.66 29 59 30.34 59 32C59 33.21 58.28 34.26 57.24 34.73L46.24 39.73L46.24 39.73C45.86 39.9 45.44 40 45 40C43.34 40 42 38.66 42 37C42 35.79 42.72 34.74 43.76 34.27ZM43.76 45.27L43.76 45.27L54.76 40.27L54.76 40.27C55.14 40.1 55.56 40 56 40C57.66 40 59 41.34 59 43C59 44.21 58.28 45.26 57.24 45.73L57.24 45.73L46.24 50.73L46.24 50.73C45.86 50.9 45.44 51 45 51C43.34 51 42 49.66 42 48C42 46.79 42.72 45.74 43.76 45.27ZM16 18C16.44 18 16.86 18.1 17.24 18.27L17.24 18.27L28.24 23.27L28.24 23.27C29.28 23.74 30 24.79 30 26C30 27.66 28.66 29 27 29C26.56 29 26.14 28.9 25.76 28.73L25.76 28.73L14.76 23.73L14.76 23.73C13.72 23.26 13 22.21 13 21C13 19.34 14.34 18 16 18ZM16 29C16.44 29 16.86 29.1 17.24 29.27L17.24 29.27L28.24 34.27L28.24 34.27C29.28 34.74 30 35.79 30 37C30 38.66 28.66 40 27 40C26.56 40 26.14 39.9 25.76 39.73L25.76 39.73L14.76 34.73L14.76 34.73C13.72 34.26 13 33.21 13 32C13 30.34 14.34 29 16 29ZM16 40C16.44 40 16.86 40.1 17.24 40.27L17.24 40.27L28.24 45.27L28.24 45.27C29.28 45.74 30 46.79 30 48C30 49.66 28.66 51 27 51C26.56 51 26.14 50.9 25.76 50.73L25.76 50.73L14.76 45.73L14.76 45.73C13.72 45.26 13 44.21 13 43C13 41.34 14.34 40 16 40Z" />
		</g>
	</g>
</svg>