<svg xmlns="http://www.w3.org/2000/svg" viewBox="0 0 30 58" width="30" height="58">
	<style>
		tspan { white-space:pre }
		.shp0 { fill: #ffffff } 
	</style>
	<g id="our team">
		<g id="1">
			<g id="share">
				<path id="facebook" class="shp0" d="M26.18 4.4C26.18 7.35 26.18 12.64 26.18 12.64C26.18 12.64 20.1 12.03 18.58 14.36C17.75 15.63 18.24 19.36 18.17 22.04C20.82 22.04 23.58 22.04 26.23 22.04C25.55 25.17 25.06 27.29 24.56 29.99C22.26 29.99 18.13 29.99 18.13 29.99L18.13 55.6C18.13 55.6 10.53 55.6 6.96 55.6C6.96 47.71 6.96 38.5 6.96 30.09C5.23 30.09 3.95 30.09 2.21 30.09C2.21 27.14 2.21 24.99 2.21 22.04C3.89 22.04 5.23 22.04 6.91 22.04C7.15 16.15 7.24 10.31 10.17 7.34C13.46 4 16.59 4.4 26.18 4.4Z" />
			</g>
		</g>
	</g>
</svg>