<svg xmlns="http://www.w3.org/2000/svg" viewBox="0 0 70 70" width="70" height="70">
	<style>
		tspan { white-space:pre }
		.shp0 { fill: #95e1d3 } 
	</style>
	<g id="service">
		<g id="2">
			<path id="LINE GRAPH" class="shp0" d="M63 68L5 68C3.34 68 2 66.66 2 65L2 7C2 5.34 3.34 4 5 4L63 4C64.66 4 66 5.34 66 7L66 65C66 66.66 64.66 68 63 68ZM60 10L8 10L8 62L60 62L60 10ZM12.43 36.48L12.43 36.47L20.43 31.47L20.43 31.48C20.89 31.2 21.42 31.03 22 31.03C22.62 31.03 23.2 31.22 23.68 31.55L23.69 31.53L36.95 40.37L52.23 29.59C52.73 29.23 53.34 29.01 54 29.01C55.66 29.01 57 30.35 57 32.01C57 33.01 56.51 33.9 55.76 34.44L55.76 34.44L38.76 46.44L38.76 46.44C38.26 46.8 37.66 47.01 37 47.01C36.36 47.01 35.76 46.81 35.28 46.47L21.96 37.59L15.69 41.51C15.21 41.84 14.63 42.03 14 42.03C12.34 42.03 11 40.69 11 39.03C11 37.95 11.57 37.01 12.43 36.48Z" />
		</g>
	</g>
</svg>