<svg xmlns="http://www.w3.org/2000/svg" viewBox="0 0 46 58" width="46" height="58">
	<style>
		tspan { white-space:pre }
		.shp0 { fill: #f38181 } 
	</style>
	<g id="our team">
		<g id="1">
			<g id="share">
				<path id="pinterest" class="shp0" d="M20.1 35.71C19.68 37.37 19.26 39.12 18.83 40.83C18.4 42.51 18.02 44.22 17.39 45.77C16.35 48.33 15.03 50.81 13.3 52.81C12.15 54.14 12.4 53.61 12.05 53.54C11.79 53.48 11.77 53.23 11.71 52.85C11.43 50.81 11.62 48.46 11.73 46.17C11.85 43.56 12.4 41.4 12.91 39.23C13.87 35.1 14.8 31.06 15.78 26.9C15.84 26.63 16.02 26.17 15.96 26.01C15.51 24.86 15.22 23.82 15.1 22.61C14.95 21.22 15.06 19.92 15.38 18.72C15.93 16.61 17.2 14.73 19.16 14.05C20.41 13.62 21.79 13.81 22.63 14.31C23.5 14.83 24.09 15.65 24.37 16.8C24.66 18.03 24.45 19.51 24.21 20.59C23.67 23.02 22.97 24.85 22.33 27.21C22.02 28.37 21.66 29.57 21.96 30.83C22.23 31.99 22.83 32.78 23.65 33.38C24.5 34 25.51 34.34 26.9 34.29C29.36 34.2 31.06 32.63 32.2 31.15C34.03 28.78 35.13 25.59 35.55 21.78C35.69 20.55 35.79 19.14 35.69 17.75C35.52 15.19 34.71 13.12 33.44 11.52C32.23 9.99 30.51 8.78 28.41 8.1C26.34 7.42 23.47 7.2 20.92 7.63C16.28 8.43 13.02 11.06 11.09 14.7C10.08 16.6 9.42 18.79 9.42 21.52C9.42 23.62 9.93 25.25 10.77 26.52C11.04 26.92 11.43 27.25 11.69 27.71C12.06 28.36 11.63 29.33 11.45 30.04C11.23 30.89 11.21 32.06 10.21 32.08C9.8 32.09 9.29 31.79 8.94 31.6C6.33 30.16 4.74 27.53 4.09 24.13C3.7 22.06 3.7 19.65 4.09 17.65C4.47 15.72 5.18 13.94 5.97 12.49C7.6 9.49 9.98 7.08 12.89 5.37C15.12 4.05 17.64 3.12 20.7 2.67C21.72 2.53 22.77 2.46 23.91 2.41C27.25 2.25 30.28 3.01 32.56 4.03C34.97 5.11 36.9 6.54 38.52 8.32C40.2 10.15 41.42 12.28 42.19 14.94C42.59 16.32 42.99 17.8 42.99 19.51C42.99 21.23 42.62 22.74 42.37 24.25C41.42 29.91 38.73 34.53 34.69 37.17C33.72 37.8 32.53 38.39 31.19 38.78C29.85 39.17 28.33 39.46 26.7 39.35C25.12 39.24 23.82 38.81 22.73 38.2C21.65 37.59 20.75 36.84 20.1 35.71Z" />
			</g>
		</g>
	</g>
</svg>