<svg xmlns="http://www.w3.org/2000/svg" viewBox="0 0 56 48" width="56" height="48">
	<style>
		tspan { white-space:pre }
		.shp0 { fill: #f38181 } 
	</style>
	<g id="our team">
		<g id="1">
			<g id="share">
				<path id="twitter" class="shp0" d="M37.03 3.2C41.09 3.13 43.26 4.61 45.33 6.5C47.08 6.35 49.37 5.37 50.71 4.68C51.14 4.45 51.58 4.21 52.02 3.97C51.25 6.04 50.21 7.67 48.61 8.9C48.25 9.17 47.9 9.54 47.45 9.72C47.45 9.72 47.45 9.73 47.45 9.74C49.73 9.72 51.61 8.69 53.4 8.13C53.4 8.14 53.4 8.15 53.4 8.16C52.46 9.65 51.19 11.16 49.84 12.25C49.29 12.68 48.74 13.11 48.2 13.55C48.23 15.96 48.16 18.27 47.71 20.29C45.09 32.08 38.14 40.09 27.13 43.52C23.18 44.75 16.8 45.25 12.27 44.13C10.03 43.57 8 42.94 6.1 42.11C5.04 41.65 4.06 41.15 3.12 40.58C2.81 40.39 2.51 40.2 2.2 40.02C3.22 40.05 4.42 40.33 5.56 40.14C6.59 39.98 7.6 40.02 8.56 39.81C10.93 39.29 13.04 38.6 14.86 37.54C15.74 37.02 17.08 36.42 17.7 35.67C16.52 35.69 15.45 35.42 14.58 35.11C11.18 33.91 9.2 31.71 7.91 28.39C8.94 28.51 11.91 28.77 12.6 28.19C11.31 28.12 10.06 27.37 9.17 26.81C6.44 25.1 4.21 22.23 4.22 17.82C4.58 17.99 4.94 18.16 5.3 18.33C5.99 18.62 6.69 18.77 7.5 18.94C7.85 19.01 8.54 19.21 8.94 19.07C8.92 19.07 8.91 19.07 8.89 19.07C8.36 18.45 7.5 18.04 6.97 17.38C5.21 15.2 3.57 11.85 4.61 7.85C4.87 6.84 5.29 5.94 5.74 5.12C5.75 5.13 5.77 5.13 5.79 5.14C5.99 5.57 6.45 5.88 6.74 6.24C7.63 7.35 8.74 8.35 9.86 9.23C13.7 12.23 17.15 14.07 22.7 15.44C24.11 15.79 25.73 16.05 27.42 16.05C26.94 14.68 27.1 12.45 27.47 11.12C28.4 7.77 30.43 5.36 33.41 4.07C34.12 3.76 34.91 3.54 35.74 3.35C36.17 3.3 36.6 3.25 37.03 3.2Z" />
			</g>
		</g>
	</g>
</svg>