<svg xmlns="http://www.w3.org/2000/svg" viewBox="0 0 68 68" width="68" height="68">
	<style>
		tspan { white-space:pre }
		.shp0 { fill: #95e1d3 } 
	</style>
	<g id="service">
		<g id="1">
			<path id="ALARM" class="shp0" d="M63.48 23.01C60.31 15.61 54.39 9.69 46.99 6.52C48.99 4.95 51.51 4 54.25 4C60.74 4 66 9.26 66 15.75C66 18.49 65.05 21.01 63.48 23.01ZM63 36C63 43.7 59.98 50.69 55.07 55.88L59.13 59.94C59.67 60.47 60 61.21 60 62.03C60 63.67 58.67 65 57.03 65C56.21 65 55.47 64.67 54.94 64.13L50.58 59.77C45.88 63.06 40.17 65 34 65C27.84 65 22.14 63.07 17.45 59.79L13.12 64.12C12.58 64.66 11.83 65 11 65C9.34 65 8 63.66 8 62C8 61.17 8.34 60.42 8.88 59.88L12.9 55.85C8.02 50.66 5 43.69 5 36C5 19.98 17.98 7 34 7C50.02 7 63 19.98 63 36ZM34 13C21.3 13 11 23.3 11 36C11 48.7 21.3 59 34 59C46.7 59 57 48.7 57 36C57 23.3 46.7 13 34 13ZM46 39L34 39C32.34 39 31 37.66 31 36L31 20C31 18.34 32.34 17 34 17C35.66 17 37 18.34 37 20L37 33L46 33C47.66 33 49 34.34 49 36C49 37.66 47.66 39 46 39ZM4.57 23.41C2.97 21.37 2 18.8 2 16C2 9.37 7.37 4 14 4C16.8 4 19.37 4.97 21.41 6.57C13.86 9.81 7.81 15.86 4.57 23.41Z" />
		</g>
	</g>
</svg>