<svg xmlns="http://www.w3.org/2000/svg" viewBox="0 0 40 34" width="40" height="34">
	<style>
		tspan { white-space:pre }
		.shp0 { fill: #ffffff } 
	</style>
	<g id="banner">
		<g id="menu">
			<path id="SHOPPING CART" class="shp0" d="M37.45 9.33L37.45 9.33L32.5 20.33L32.5 20.33C32.26 20.87 31.73 21.25 31.11 21.3L31.11 21.3L16.85 22.25L17.68 24.6L33.2 24.6C35.02 24.6 36.5 26.08 36.5 27.9C36.5 29.72 35.02 31.2 33.2 31.2C31.38 31.2 29.9 29.72 29.9 27.9L14.5 27.9C14.5 29.72 13.02 31.2 11.2 31.2C9.38 31.2 7.9 29.72 7.9 27.9C7.9 26.08 9.38 24.6 11.2 24.6L14.18 24.6L7.83 6.45L4.05 6.45C3.14 6.45 2.4 5.71 2.4 4.8C2.4 3.89 3.14 3.15 4.05 3.15L9 3.15C9.72 3.15 10.33 3.61 10.55 4.26L10.56 4.25L11.52 7L35.95 7C36.86 7 37.6 7.74 37.6 8.65C37.6 8.89 37.55 9.12 37.45 9.33ZM12.67 10.3L15.72 19.01L29.9 18.07L33.4 10.3L12.67 10.3Z" />
		</g>
	</g>
</svg>