<svg xmlns="http://www.w3.org/2000/svg" viewBox="0 0 72 68" width="72" height="68">
	<style>
		tspan { white-space:pre }
		.shp0 { fill: #95e1d3 } 
	</style>
	<g id="service">
		<g id="6">
			<path id="IMAGE" class="shp0" d="M65 66L7 66C5.34 66 4 64.66 4 63L4 5C4 3.34 5.34 2 7 2L65 2C66.66 2 68 3.34 68 5L68 63C68 64.66 66.66 66 65 66ZM62 8L10 8L10 60L62 60L62 8ZM17 11L28 11L28 11C29.66 11 31 12.34 31 14C31 15.66 29.66 17 28 17L28 17L19 17L19 26L19 26C19 27.66 17.66 29 16 29C14.34 29 13 27.66 13 26L13 26L13 15L13 15L13 11L17 11L17 11ZM13 42L13 42C13 40.34 14.34 39 16 39C17.66 39 19 40.34 19 42L19 42L19 51L28 51L28 51C29.66 51 31 52.34 31 54C31 55.66 29.66 57 28 57L28 57L17 57L17 57L13 57L13 53L13 53L13 42ZM44 11L44 11L55 11L55 11L59 11L59 15L59 15L59 26L59 26C59 27.66 57.66 29 56 29C54.34 29 53 27.66 53 26L53 26L53 17L44 17L44 17C42.34 17 41 15.66 41 14C41 12.34 42.34 11 44 11ZM44 51L44 51L53 51L53 42L53 42C53 40.34 54.34 39 56 39C57.66 39 59 40.34 59 42L59 42L59 53L59 53L59 57L55 57L55 57L44 57L44 57C42.34 57 41 55.66 41 54C41 52.34 42.34 51 44 51Z" />
		</g>
	</g>
</svg>