<svg xmlns="http://www.w3.org/2000/svg" viewBox="0 0 56 56" width="56" height="56">
	<style>
		tspan { white-space:pre }
		.shp0 { fill: #f38181 } 
	</style>
	<g id="our team">
		<g id="1">
			<g id="share">
				<path id="instagram" class="shp0" d="M47.4 53.6L9 53.6C5.47 53.6 2.6 50.73 2.6 47.2L2.6 8.8C2.6 5.26 5.47 2.4 9 2.4L47.4 2.4C50.93 2.4 53.8 5.26 53.8 8.8L53.8 47.2C53.8 50.73 50.93 53.6 47.4 53.6ZM28.2 18.08C24.21 18.08 20.78 20.44 19.2 23.84L19.19 23.84C19.18 23.87 19.17 23.91 19.15 23.95C19.06 24.16 18.97 24.37 18.89 24.59C18.86 24.7 18.81 24.8 18.78 24.9C18.71 25.13 18.65 25.35 18.59 25.58C18.56 25.69 18.53 25.79 18.51 25.9C18.45 26.14 18.42 26.39 18.38 26.64C18.37 26.74 18.35 26.84 18.34 26.94C18.3 27.29 18.28 27.64 18.28 28C18.28 33.48 22.72 37.92 28.2 37.92C33.68 37.92 38.12 33.48 38.12 28C38.12 27.64 38.1 27.29 38.06 26.94C38.05 26.84 38.03 26.74 38.02 26.64C37.98 26.39 37.95 26.14 37.89 25.9C37.87 25.79 37.84 25.69 37.81 25.58C37.75 25.35 37.69 25.13 37.62 24.9C37.59 24.8 37.54 24.7 37.51 24.59C37.43 24.37 37.34 24.16 37.25 23.95C37.23 23.91 37.22 23.87 37.21 23.84L37.2 23.84C35.62 20.44 32.19 18.08 28.2 18.08ZM48.04 10.72C48.04 9.3 46.89 8.16 45.48 8.16L40.36 8.16C38.95 8.16 37.8 9.3 37.8 10.72L37.8 15.84C37.8 17.25 38.95 18.4 40.36 18.4L45.48 18.4C46.89 18.4 48.04 17.25 48.04 15.84L48.04 10.72ZM48.04 23.84L43.32 23.84C43.68 25.16 43.88 26.56 43.88 28C43.88 36.66 36.86 43.68 28.2 43.68C19.54 43.68 12.52 36.66 12.52 28C12.52 26.56 12.72 25.16 13.08 23.84L8.36 23.84L8.36 45.28C8.36 46.69 9.51 47.84 10.92 47.84L45.48 47.84C46.89 47.84 48.04 46.69 48.04 45.28L48.04 23.84Z" />
			</g>
		</g>
	</g>
</svg>